<?xml version="1.0" encoding="utf-8"?>
<!-- Generator: Adobe Illustrator 16.0.0, SVG Export Plug-In . SVG Version: 6.00 Build 0)  -->
<!DOCTYPE svg PUBLIC "-//W3C//DTD SVG 1.1//EN" "http://www.w3.org/Graphics/SVG/1.1/DTD/svg11.dtd">
<svg version="1.1" id="Layer_1" xmlns="http://www.w3.org/2000/svg" xmlns:xlink="http://www.w3.org/1999/xlink" x="0px" y="0px"
	 width="766px" height="220.129px" viewBox="0 0 766 220.129" enable-background="new 0 0 766 220.129" xml:space="preserve">
<g>
	<polygon fill="#FDB515" points="151.877,179.393 151.877,88.139 111.64,168.12 95.743,168.12 55.692,88.185 55.692,179.393 
		27.889,179.393 27.889,44.229 66.776,44.229 103.878,121.423 140.98,44.229 179.681,44.229 179.681,179.393 	"/>
	<g>
		<path fill="#FDB515" d="M176.681,47.229v129.164h-21.804V75.5l-45.086,89.62H97.595L52.692,75.5v100.893H30.889V47.229h34
			l38.989,81.119l38.989-81.119H176.681 M182.681,41.229h-6h-33.814h-3.773l-1.634,3.401l-33.582,69.867L70.297,44.63l-1.634-3.401
			h-3.773h-34h-6v6v129.164v6h6h21.803h6v-6v-75.523l33.539,66.938l1.66,3.312h3.705h12.196h3.698l1.662-3.304l33.726-67.039v75.615
			v6h6h21.804h6v-6V47.229V41.229L182.681,41.229z"/>
	</g>
</g>
<g>
	<polygon fill="#FDB515" points="487.497,179.393 487.497,70.186 448.323,70.186 448.323,44.229 554.474,44.229 554.477,70.186 
		515.303,70.186 515.303,179.393 	"/>
	<path fill="#FDB515" d="M551.474,47.229l0.003,19.957h-39.174v109.207h-21.806V67.186h-39.174V47.229H551.474 M557.473,41.229
		h-5.999h-100.15h-6v6v19.957v6h6h33.174v103.207v6h6h21.806h6v-6V73.186h33.174h6.001l-0.001-6.001l-0.003-19.957L557.473,41.229
		L557.473,41.229z"/>
</g>
<g>
	<path fill="#FDB515" d="M677.903,180.869c-20.248,0-37.305-6.629-50.695-19.703c-13.413-13.091-20.214-29.854-20.214-49.82
		c0-19.964,6.926-36.851,20.585-50.189c13.638-13.318,31.065-20.07,51.801-20.07c20.804,0,38.43,7.791,52.389,23.157l1.839,2.024
		l-17.775,19.437l-2.217-2.128c-5.871-5.634-11.444-9.599-16.563-11.786c-5.086-2.169-11.187-3.27-18.134-3.27
		c-12.37,0-22.453,3.87-30.825,11.832c-8.325,7.921-12.372,17.787-12.372,30.163c0.006,12.414,4.041,22.479,12.338,30.771
		c8.298,8.301,17.849,12.335,29.199,12.335c7.037,0,13.139-1.181,18.135-3.509c5.101-2.372,10.555-6.266,16.214-11.573l2.147-2.014
		l18.061,18.538l-1.885,2.088C715.725,172.889,698.221,180.869,677.903,180.869z"/>
	<path fill="#FDB515" d="M679.38,44.086c20.019,0,36.739,7.392,50.168,22.174l-13.855,15.151
		c-6.162-5.913-11.981-10.039-17.463-12.38c-5.482-2.339-11.919-3.511-19.312-3.511c-13.059,0-24.021,4.221-32.893,12.658
		c-8.869,8.438-13.305,19.217-13.305,32.336c0.006,13.123,4.408,24.089,13.217,32.893c8.809,8.811,19.246,13.213,31.32,13.213
		c7.514,0,13.979-1.263,19.401-3.789c5.42-2.521,11.088-6.56,17-12.104l14.043,14.414c-13.674,15.15-30.274,22.729-49.799,22.729
		c-19.525,0-35.729-6.283-48.6-18.85c-12.873-12.564-19.31-28.457-19.31-47.674s6.56-35.229,19.681-48.043
		C642.794,50.491,659.362,44.086,679.38,44.086 M679.38,38.086c-21.546,0-39.68,7.04-53.897,20.924
		c-14.259,13.924-21.488,31.533-21.488,52.335c0,20.806,7.105,38.29,21.119,51.968c13.97,13.64,31.731,20.556,52.79,20.556
		c21.202,0,39.455-8.313,54.253-24.708l3.77-4.178L732,150.954l-14.043-14.414l-4.108-4.217l-4.294,4.027
		c-5.427,5.089-10.616,8.804-15.426,11.04c-4.601,2.144-10.275,3.229-16.871,3.229c-10.514,0-19.371-3.747-27.077-11.455
		c-7.707-7.702-11.455-17.074-11.46-28.653c0-11.507,3.742-20.663,11.44-27.987c7.787-7.404,17.193-11.004,28.757-11.004
		c6.54,0,12.245,1.02,16.957,3.03c4.784,2.043,10.055,5.808,15.663,11.19l4.435,4.255l4.147-4.536l13.855-15.151l3.69-4.036
		l-3.677-4.048C719.438,46.208,701.064,38.086,679.38,38.086L679.38,38.086z"/>
</g>
<g>
	<path fill="#FDB515" d="M411.479,56.238C392.938,24.47,358.497,3.121,319.054,3.121c-47.842,0-88.345,31.422-102.008,74.751
		c-3.204,10.161-4.936,20.976-4.936,32.193c0,11.217,1.73,22.033,4.936,32.191c13.663,43.328,54.166,74.752,102.008,74.752
		c39.442,0,73.885-21.352,92.423-53.115c9.229-15.812,14.521-34.201,14.521-53.828C425.999,90.438,420.707,72.051,411.479,56.238z"
		/>
	<g>
		<path fill="#FFFFFF" d="M319.046,11.449c-54.371,0-98.605,44.234-98.605,98.604c0,54.383,44.234,98.627,98.605,98.627
			c54.383,0,98.625-44.244,98.625-98.627C417.671,55.684,373.429,11.449,319.046,11.449z M319.046,190.682
			c-44.446,0-80.605-36.168-80.605-80.626c0-44.445,36.16-80.604,80.605-80.604c44.457,0,80.625,36.159,80.625,80.604
			C399.671,154.514,363.503,190.682,319.046,190.682z"/>
		<path fill="#FFFFFF" d="M354.312,111.219c-2.393-1.443-5.854-2.727-10.383-3.91c4.246-1.439,7.613-3.271,10.158-5.513
			c2.564-2.242,4.531-4.808,5.883-7.724c1.369-2.916,2.043-5.992,2.043-9.229c0-4.454-1.271-8.557-3.838-12.338
			c-2.576-3.715-6.289-6.536-11.066-8.559c-1.855-0.799-4.059-1.375-6.465-1.806V44.787h-16.338v16.135h-10.49V44.787h-16.336
			v16.135h-24.938v13.586h3.839c2.516,0,4.245,0.273,5.125,0.708c0.913,0.432,1.541,1.104,1.902,1.922
			c0.363,0.768,0.551,2.644,0.551,5.576v54.8c0,2.865-0.188,4.678-0.551,5.527c-0.361,0.832-0.99,1.439-1.902,1.873
			c-0.912,0.432-2.608,0.676-5.125,0.676h-3.839v13.586h24.938v16.168h16.336v-16.168h9.281c0.395,0,0.801,0,1.207,0v16.168h16.34
			v-17.516c2.754-0.541,5.145-1.221,7.201-2.051c5.678-2.324,10-5.688,13.07-10.062c3.127-4.371,4.65-9.148,4.65-14.373
			c0-4.355-0.988-8.332-3.02-11.855C360.522,115.926,357.769,113.172,354.312,111.219z M307.86,76.895h10.568
			c6.164,0,10.473,0.354,12.844,1.121c2.439,0.8,4.268,2.083,5.521,3.909c1.26,1.796,1.887,4.039,1.887,6.571
			c0,2.501-0.676,4.711-2.012,6.601c-1.32,1.891-3.303,3.3-5.941,4.261c-2.674,0.964-6.73,1.411-12.299,1.478h-10.566v-23.94
			L307.86,76.895L307.86,76.895z M337.735,137.529c-1.9,2.402-4.184,4.035-6.889,4.804c-2.672,0.803-6.062,1.155-10.156,1.155
			h-7.061c-2.344,0-3.758-0.096-4.291-0.354c-0.537-0.288-0.928-0.704-1.148-1.375c-0.174-0.481-0.268-2.245-0.33-5.288v-21.246
			h12.469c5.473,0,9.545,0.51,12.217,1.534c2.674,1.029,4.67,2.564,6.01,4.584c1.354,2.021,1.998,4.453,1.998,7.402
			C340.554,132.143,339.626,135.092,337.735,137.529z"/>
	</g>
</g>
</svg>
