<?xml version="1.0" encoding="utf-8"?>
<!-- Generator: Adobe Illustrator 16.0.0, SVG Export Plug-In . SVG Version: 6.00 Build 0)  -->
<!DOCTYPE svg PUBLIC "-//W3C//DTD SVG 1.1 Tiny//EN" "http://www.w3.org/Graphics/SVG/1.1/DTD/svg11-tiny.dtd">
<svg version="1.1" baseProfile="tiny" id="Layer_1" xmlns="http://www.w3.org/2000/svg" xmlns:xlink="http://www.w3.org/1999/xlink"
	 x="0px" y="0px" width="766px" height="220.13px" viewBox="0 0 766 220.13" xml:space="preserve">
<g>
	<path fill="#989898" d="M189.805,77.873V30.729c0-5.718-4.728-10.354-10.561-10.354H19.525c-5.833,0-10.561,4.636-10.561,10.354
		v156.577c0,5.718,4.728,10.353,10.561,10.353h159.72c5.833,0,10.561-4.635,10.561-10.353V142.26
		c-3.204-10.16-4.936-20.975-4.936-32.192S186.601,88.034,189.805,77.873z M173.681,176.392h-21.804V75.5l-45.086,89.619H94.595
		L49.692,75.5v100.892H27.889V47.229h34l38.989,81.119l38.989-81.119h33.814L173.681,176.392L173.681,176.392z"/>
	<path fill="#989898" d="M554.518,20.377H394.799c-5.834,0-10.562,4.636-10.562,10.354v25.509
		c9.228,15.812,14.521,34.201,14.521,53.828s-5.293,38.016-14.521,53.827v23.413c0,5.718,4.728,10.353,10.562,10.353h159.719
		c5.832,0,10.561-4.635,10.561-10.353V30.73C565.077,25.013,560.35,20.377,554.518,20.377z M524.477,67.186h-39.174v109.206h-21.806
		V67.186h-39.174V47.229h100.152L524.477,67.186L524.477,67.186z"/>
	<path fill="#989898" d="M746.475,20.254H586.756c-5.832,0-10.562,4.637-10.562,10.354v156.577c0,5.718,4.729,10.353,10.562,10.353
		h159.719c5.834,0,10.561-4.635,10.561-10.353V30.607C757.034,24.891,752.309,20.254,746.475,20.254z M642.938,143.407
		c8.807,8.81,19.246,13.212,31.32,13.212c7.514,0,13.979-1.262,19.401-3.788c5.42-2.522,11.088-6.56,17-12.104l14.043,14.413
		c-13.674,15.151-30.274,22.729-49.799,22.729s-35.727-6.283-48.598-18.848c-12.873-12.565-19.31-28.457-19.31-47.674
		s6.56-35.23,19.681-48.043c13.119-12.812,29.686-19.217,49.705-19.217c20.018,0,36.739,7.392,50.168,22.174l-13.857,15.151
		c-6.162-5.913-11.981-10.039-17.463-12.38c-5.482-2.339-11.918-3.511-19.31-3.511c-13.059,0-24.021,4.221-32.893,12.658
		c-8.869,8.438-13.303,19.217-13.303,32.336C629.727,123.637,634.129,134.603,642.938,143.407z"/>
	<path fill="#FDB515" d="M384.237,56.238c-18.541-31.768-52.982-53.117-92.425-53.117c-47.842,0-88.345,31.422-102.008,74.751
		c-3.204,10.161-4.936,20.976-4.936,32.193s1.73,22.032,4.936,32.192c13.663,43.328,54.166,74.751,102.008,74.751
		c39.442,0,73.885-21.351,92.425-53.116c9.228-15.812,14.521-34.2,14.521-53.827S393.465,72.051,384.237,56.238z M291.804,208.683
		c-54.371,0-98.605-44.244-98.605-98.627c0-54.371,44.234-98.604,98.605-98.604c54.382,0,98.624,44.234,98.624,98.604
		C390.428,164.438,346.186,208.683,291.804,208.683z"/>
	<path fill="#FDB515" d="M304.279,100.081c2.639-0.961,4.622-2.37,5.942-4.261c1.336-1.89,2.012-4.1,2.012-6.601
		c0-2.532-0.627-4.774-1.887-6.571c-1.257-1.826-3.083-3.108-5.521-3.909c-2.373-0.768-6.68-1.121-12.845-1.121h-10.567v23.939
		h10.567C297.547,101.491,301.605,101.044,304.279,100.081z"/>
	<path fill="#FDB515" d="M306.101,117.483c-2.671-1.026-6.745-1.535-12.217-1.535h-12.47v21.245
		c0.063,3.044,0.156,4.807,0.331,5.289c0.221,0.671,0.611,1.087,1.147,1.375c0.534,0.259,1.948,0.355,4.292,0.355h7.061
		c4.091,0,7.483-0.355,10.155-1.158c2.705-0.768,4.987-2.398,6.887-4.803c1.891-2.438,2.818-5.387,2.818-8.782
		c0-2.949-0.646-5.384-1.998-7.402C310.77,120.048,308.773,118.512,306.101,117.483z"/>
	<path fill="#FDB515" d="M291.804,29.45c-44.446,0-80.605,36.159-80.605,80.604c0,44.458,36.16,80.627,80.605,80.627
		c44.456,0,80.624-36.169,80.624-80.627C372.428,65.609,336.26,29.45,291.804,29.45z M334.469,146.437
		c-3.069,4.376-7.395,7.738-13.069,10.065c-2.06,0.83-4.448,1.507-7.201,2.049v17.515h-16.339v-16.168c-0.409,0-0.815,0-1.208,0
		h-9.28v16.168h-16.336v-16.168h-24.938v-13.586h3.839c2.516,0,4.212-0.243,5.125-0.676c0.913-0.431,1.541-1.04,1.902-1.872
		c0.362-0.852,0.551-2.663,0.551-5.527V83.436c0-2.934-0.188-4.81-0.551-5.576c-0.361-0.816-0.99-1.49-1.902-1.922
		c-0.88-0.434-2.608-0.708-5.125-0.708h-3.839V61.644h24.938V45.509h16.336v16.135h10.489V45.509h16.339v17.354
		c2.406,0.43,4.606,1.007,6.463,1.807c4.778,2.021,8.491,4.843,11.068,8.558c2.564,3.781,3.838,7.884,3.838,12.338
		c0,3.236-0.674,6.312-2.044,9.229c-1.352,2.917-3.317,5.48-5.882,7.723c-2.546,2.243-5.912,4.073-10.158,5.513
		c4.529,1.185,7.99,2.468,10.38,3.91c3.458,1.954,6.21,4.708,8.237,8.268c2.029,3.523,3.019,7.499,3.019,11.854
		C339.12,137.288,337.597,142.066,334.469,146.437z"/>
	<path fill="#FFFFFF" d="M291.804,11.45c-54.371,0-98.605,44.234-98.605,98.604c0,54.383,44.234,98.627,98.605,98.627
		c54.382,0,98.624-44.244,98.624-98.627C390.428,55.685,346.186,11.45,291.804,11.45z M291.804,190.683
		c-44.446,0-80.605-36.169-80.605-80.627c0-44.445,36.16-80.604,80.605-80.604c44.456,0,80.624,36.159,80.624,80.604
		C372.428,154.514,336.26,190.683,291.804,190.683z"/>
	<path fill="#FFFFFF" d="M327.864,111.941c-2.39-1.442-5.852-2.727-10.38-3.91c4.246-1.439,7.612-3.271,10.158-5.513
		c2.563-2.242,4.53-4.808,5.882-7.724c1.37-2.916,2.044-5.992,2.044-9.229c0-4.454-1.272-8.557-3.838-12.338
		c-2.577-3.715-6.29-6.536-11.068-8.559c-1.855-0.799-4.057-1.375-6.463-1.806V45.51H297.86v16.135h-10.489V45.51h-16.336v16.135
		h-24.938V75.23h3.839c2.516,0,4.245,0.273,5.125,0.708c0.913,0.432,1.541,1.104,1.902,1.922c0.362,0.768,0.551,2.644,0.551,5.576
		v54.801c0,2.864-0.188,4.677-0.551,5.527c-0.361,0.832-0.99,1.441-1.902,1.872c-0.912,0.433-2.608,0.676-5.125,0.676h-3.839v13.586
		h24.938v16.168h16.336v-16.168h9.28c0.394,0,0.8,0,1.208,0v16.168h16.34v-17.515c2.752-0.542,5.142-1.219,7.201-2.049
		c5.675-2.327,10-5.689,13.069-10.065c3.128-4.37,4.651-9.147,4.651-14.373c0-4.355-0.989-8.331-3.019-11.854
		C334.075,116.649,331.322,113.896,327.864,111.941z M281.414,77.618h10.567c6.165,0,10.472,0.354,12.845,1.121
		c2.438,0.8,4.265,2.083,5.521,3.909c1.259,1.796,1.887,4.039,1.887,6.571c0,2.501-0.676,4.711-2.012,6.601
		c-1.32,1.891-3.304,3.3-5.942,4.261c-2.674,0.964-6.732,1.411-12.298,1.478h-10.567L281.414,77.618L281.414,77.618z
		 M311.288,138.252c-1.899,2.403-4.182,4.035-6.887,4.803c-2.672,0.803-6.064,1.157-10.155,1.157h-7.061
		c-2.344,0-3.758-0.097-4.292-0.354c-0.536-0.288-0.927-0.704-1.147-1.375c-0.175-0.482-0.268-2.245-0.331-5.289v-21.245h12.47
		c5.472,0,9.545,0.509,12.217,1.535c2.673,1.028,4.669,2.563,6.009,4.584c1.352,2.02,1.998,4.453,1.998,7.402
		C314.106,132.865,313.179,135.814,311.288,138.252z"/>
	<polygon fill="#FFFFFF" points="100.877,128.349 61.889,47.229 27.889,47.229 27.889,176.392 49.692,176.392 49.692,75.5 
		94.595,165.119 106.791,165.119 151.877,75.5 151.877,176.392 173.681,176.392 173.681,47.229 139.866,47.229 	"/>
	<polygon fill="#FFFFFF" points="424.323,67.186 463.497,67.186 463.497,176.392 485.303,176.392 485.303,67.186 524.477,67.186 
		524.477,47.229 424.323,47.229 	"/>
	<path fill="#FFFFFF" d="M643.028,78.18c8.871-8.438,19.834-12.658,32.894-12.658c7.391,0,13.825,1.172,19.309,3.511
		c5.48,2.341,11.301,6.467,17.463,12.38l13.857-15.151c-13.428-14.782-30.15-22.175-50.168-22.175
		c-20.021,0-36.586,6.407-49.705,19.218c-13.121,12.812-19.68,28.825-19.68,48.043c0,19.217,6.436,35.107,19.309,47.674
		c12.871,12.563,29.072,18.848,48.598,18.848c19.523,0,36.125-7.576,49.799-22.729l-14.043-14.413
		c-5.911,5.544-11.58,9.58-17,12.104c-5.422,2.526-11.889,3.788-19.401,3.788c-12.074,0-22.515-4.402-31.32-13.212
		c-8.809-8.806-13.211-19.771-13.211-32.892C629.727,97.397,634.159,86.619,643.028,78.18z"/>
</g>
</svg>
