<?xml version="1.0" encoding="utf-8"?>
<!-- Generator: Adobe Illustrator 16.0.0, SVG Export Plug-In . SVG Version: 6.00 Build 0)  -->
<!DOCTYPE svg PUBLIC "-//W3C//DTD SVG 1.1 Tiny//EN" "http://www.w3.org/Graphics/SVG/1.1/DTD/svg11-tiny.dtd">
<svg version="1.1" baseProfile="tiny" id="Layer_2" xmlns="http://www.w3.org/2000/svg" xmlns:xlink="http://www.w3.org/1999/xlink"
	 x="0px" y="0px" width="1024px" height="768px" viewBox="0 0 1024 768" xml:space="preserve">
<g>
	<path fill="#999999" d="M318.805,335.994v-47.144c0-5.717-4.728-10.353-10.561-10.353H148.526c-5.833,0-10.561,4.636-10.561,10.353
		v156.577c0,5.718,4.728,10.353,10.561,10.353h159.719c5.833,0,10.561-4.635,10.561-10.353V400.38
		c-3.204-10.16-4.936-20.974-4.936-32.192S315.601,346.155,318.805,335.994z M302.681,434.512h-21.804V333.621l-45.086,89.619
		h-12.196l-44.902-89.619v100.891h-21.804V305.35h34l38.989,81.119l38.989-81.119h33.815V434.512z"/>
	<path fill="#999999" d="M683.518,278.498H523.799c-5.834,0-10.561,4.636-10.561,10.353v25.509
		c9.227,15.812,14.52,34.201,14.52,53.828s-5.293,38.016-14.52,53.827v23.413c0,5.718,4.727,10.353,10.561,10.353h159.719
		c5.832,0,10.561-4.635,10.561-10.353V288.851C694.078,283.134,689.35,278.498,683.518,278.498z M653.477,325.306h-39.174v109.206
		h-21.805V325.306h-39.174V305.35h100.152V325.306z"/>
	<path fill="#999999" d="M875.475,278.375H715.756c-5.832,0-10.561,4.636-10.561,10.353v156.577c0,5.718,4.729,10.353,10.561,10.353
		h159.719c5.834,0,10.561-4.635,10.561-10.353V288.728C886.035,283.011,881.309,278.375,875.475,278.375z M771.938,401.528
		c8.807,8.809,19.246,13.212,31.32,13.212c7.514,0,13.98-1.262,19.402-3.788c5.42-2.523,11.088-6.56,17-12.104l14.043,14.413
		c-13.674,15.152-30.275,22.729-49.799,22.729c-19.525,0-35.727-6.283-48.598-18.848c-12.873-12.565-19.309-28.457-19.309-47.674
		c0-19.217,6.559-35.23,19.68-48.043c13.119-12.811,29.686-19.217,49.705-19.217c20.018,0,36.74,7.392,50.168,22.174l-13.857,15.152
		c-6.162-5.913-11.982-10.039-17.463-12.38c-5.482-2.339-11.918-3.511-19.309-3.511c-13.059,0-24.021,4.221-32.893,12.658
		c-8.869,8.439-13.303,19.217-13.303,32.336C758.727,381.757,763.129,392.723,771.938,401.528z"/>
	<path fill="#FEB500" d="M513.238,314.359c-18.541-31.767-52.983-53.117-92.425-53.117c-47.842,0-88.345,31.422-102.008,74.751
		c-3.204,10.161-4.936,20.975-4.936,32.193s1.731,22.032,4.936,32.192c13.663,43.329,54.166,74.751,102.008,74.751
		c39.442,0,73.885-21.35,92.425-53.116c9.227-15.812,14.52-34.2,14.52-53.827S522.465,330.171,513.238,314.359z M420.804,466.803
		c-54.371,0-98.605-44.244-98.605-98.627c0-54.371,44.234-98.604,98.605-98.604c54.382,0,98.624,44.234,98.624,98.604
		C519.428,422.559,475.186,466.803,420.804,466.803z"/>
	<path fill="#FEB500" d="M433.28,358.202c2.638-0.961,4.622-2.37,5.942-4.261c1.336-1.89,2.012-4.1,2.012-6.601
		c0-2.532-0.627-4.774-1.887-6.571c-1.257-1.826-3.083-3.108-5.521-3.909c-2.373-0.768-6.68-1.121-12.845-1.121h-10.568v23.939
		h10.568C426.547,359.612,430.606,359.165,433.28,358.202z"/>
	<path fill="#FEB500" d="M435.101,375.604c-2.671-1.026-6.745-1.535-12.217-1.535h-12.47v21.245
		c0.064,3.044,0.157,4.807,0.331,5.289c0.221,0.671,0.612,1.087,1.148,1.375c0.534,0.259,1.948,0.355,4.292,0.355h7.061
		c4.09,0,7.483-0.355,10.155-1.158c2.705-0.767,4.987-2.398,6.887-4.802c1.89-2.438,2.818-5.387,2.818-8.783
		c0-2.949-0.646-5.383-1.998-7.402C439.77,378.168,437.774,376.632,435.101,375.604z"/>
	<path fill="#FEB500" d="M420.804,287.571c-44.446,0-80.605,36.159-80.605,80.604c0,44.458,36.16,80.627,80.605,80.627
		c44.456,0,80.624-36.169,80.624-80.627C501.428,323.73,465.26,287.571,420.804,287.571z M463.469,404.557
		c-3.069,4.376-7.394,7.738-13.069,10.066c-2.06,0.83-4.448,1.506-7.201,2.048v17.515h-16.339v-16.168c-0.409,0-0.816,0-1.208,0
		h-9.281v16.168h-16.336v-16.168h-24.938v-13.586h3.839c2.515,0,4.212-0.243,5.125-0.676c0.913-0.43,1.541-1.04,1.902-1.872
		c0.362-0.851,0.551-2.663,0.551-5.527v-54.801c0-2.933-0.189-4.809-0.551-5.576c-0.361-0.816-0.99-1.49-1.902-1.922
		c-0.88-0.434-2.609-0.708-5.125-0.708h-3.839v-13.586h24.938v-16.135h16.336v16.135h10.49v-16.135H443.2v17.355
		c2.406,0.43,4.606,1.007,6.463,1.806c4.778,2.021,8.491,4.843,11.068,8.558c2.564,3.781,3.838,7.884,3.838,12.338
		c0,3.236-0.674,6.312-2.044,9.229c-1.352,2.917-3.318,5.481-5.882,7.723c-2.546,2.243-5.912,4.073-10.158,5.513
		c4.529,1.184,7.99,2.468,10.38,3.91c3.458,1.954,6.21,4.708,8.237,8.268c2.029,3.523,3.019,7.499,3.019,11.854
		C468.121,395.409,466.597,400.187,463.469,404.557z"/>
	<path fill="#FFFFFF" d="M420.804,269.571c-54.371,0-98.605,44.234-98.605,98.604c0,54.383,44.234,98.627,98.605,98.627
		c54.382,0,98.624-44.244,98.624-98.627C519.428,313.805,475.186,269.571,420.804,269.571z M420.804,448.803
		c-44.446,0-80.605-36.169-80.605-80.627c0-44.445,36.16-80.604,80.605-80.604c44.456,0,80.624,36.159,80.624,80.604
		C501.428,412.634,465.26,448.803,420.804,448.803z"/>
	<path fill="#FFFFFF" d="M456.865,370.062c-2.39-1.442-5.852-2.727-10.38-3.91c4.246-1.44,7.612-3.271,10.158-5.513
		c2.564-2.242,4.53-4.807,5.882-7.723c1.37-2.917,2.044-5.993,2.044-9.229c0-4.454-1.273-8.557-3.838-12.338
		c-2.577-3.715-6.29-6.536-11.068-8.558c-1.856-0.799-4.057-1.375-6.463-1.806v-17.355h-16.339v16.135h-10.49v-16.135h-16.336
		v16.135h-24.938v13.586h3.839c2.515,0,4.245,0.274,5.125,0.708c0.913,0.432,1.541,1.105,1.902,1.922
		c0.362,0.768,0.551,2.644,0.551,5.576v54.801c0,2.864-0.189,4.677-0.551,5.527c-0.361,0.832-0.99,1.442-1.902,1.872
		c-0.912,0.433-2.609,0.676-5.125,0.676h-3.839v13.586h24.938v16.168h16.336v-16.168h9.281c0.393,0,0.8,0,1.208,0v16.168H443.2
		v-17.515c2.752-0.542,5.141-1.218,7.201-2.048c5.675-2.328,10-5.69,13.069-10.066c3.128-4.37,4.652-9.147,4.652-14.373
		c0-4.355-0.99-8.331-3.019-11.854C463.076,374.77,460.323,372.016,456.865,370.062z M410.414,335.739h10.568
		c6.165,0,10.472,0.353,12.845,1.121c2.438,0.8,4.264,2.083,5.521,3.909c1.259,1.796,1.887,4.039,1.887,6.571
		c0,2.501-0.676,4.711-2.012,6.601c-1.32,1.891-3.304,3.3-5.942,4.261c-2.674,0.963-6.733,1.411-12.298,1.477h-10.568V335.739z
		 M440.289,396.373c-1.9,2.403-4.182,4.035-6.887,4.802c-2.672,0.803-6.065,1.158-10.155,1.158h-7.061
		c-2.344,0-3.758-0.097-4.292-0.355c-0.536-0.288-0.927-0.704-1.148-1.375c-0.174-0.482-0.267-2.245-0.331-5.289v-21.245h12.47
		c5.472,0,9.545,0.509,12.217,1.535c2.673,1.028,4.669,2.564,6.009,4.584c1.351,2.02,1.998,4.453,1.998,7.402
		C443.107,390.986,442.179,393.935,440.289,396.373z"/>
	<polygon fill="#FFFFFF" points="229.877,386.469 190.889,305.35 156.889,305.35 156.889,434.512 178.693,434.512 178.693,333.621 
		223.595,423.24 235.791,423.24 280.877,333.621 280.877,434.512 302.681,434.512 302.681,305.35 268.866,305.35 	"/>
	<polygon fill="#FFFFFF" points="553.324,325.306 592.498,325.306 592.498,434.512 614.303,434.512 614.303,325.306 
		653.477,325.306 653.477,305.35 553.324,305.35 	"/>
	<path fill="#FFFFFF" d="M772.029,336.3c8.871-8.437,19.834-12.658,32.893-12.658c7.391,0,13.826,1.172,19.309,3.511
		c5.48,2.341,11.301,6.467,17.463,12.38l13.857-15.152c-13.428-14.782-30.15-22.174-50.168-22.174
		c-20.02,0-36.586,6.407-49.705,19.217c-13.121,12.813-19.68,28.826-19.68,48.043c0,19.217,6.436,35.108,19.309,47.674
		c12.871,12.564,29.072,18.848,48.598,18.848c19.523,0,36.125-7.576,49.799-22.729l-14.043-14.413
		c-5.912,5.544-11.58,9.58-17,12.104c-5.422,2.526-11.889,3.788-19.402,3.788c-12.074,0-22.514-4.403-31.32-13.212
		c-8.809-8.806-13.211-19.771-13.211-32.892C758.727,355.518,763.16,344.74,772.029,336.3z"/>
</g>
</svg>
