<?xml version="1.0" encoding="utf-8"?>
<!-- Generator: Adobe Illustrator 16.0.0, SVG Export Plug-In . SVG Version: 6.00 Build 0)  -->
<!DOCTYPE svg PUBLIC "-//W3C//DTD SVG 1.1 Tiny//EN" "http://www.w3.org/Graphics/SVG/1.1/DTD/svg11-tiny.dtd">
<svg version="1.1" baseProfile="tiny" id="Layer_1" xmlns="http://www.w3.org/2000/svg" xmlns:xlink="http://www.w3.org/1999/xlink"
	 x="0px" y="0px" width="1024px" height="768px" viewBox="0 0 1024 768" xml:space="preserve">
<path fill="#999999" d="M338.146,298.977H178.428c-5.833,0-10.561,4.636-10.561,10.353v156.577c0,5.718,4.728,10.353,10.561,10.353
	h159.719c5.833,0,10.561-4.635,10.561-10.353V309.329C348.707,303.612,343.979,298.977,338.146,298.977z M309.517,454.068
	c-0.624-17.41-1.37-34.666-2.238-51.767c-0.872-17.099-1.991-32.986-3.358-47.662c-1.245,2.116-2.892,5.162-4.943,9.141
	c-2.052,3.981-4.261,8.488-6.623,13.524c-2.364,5.037-4.882,10.385-7.555,16.043c-2.676,5.66-5.194,11.164-7.555,16.51
	c-2.364,5.348-4.571,10.324-6.623,14.924c-2.052,4.602-3.702,8.395-4.943,11.379h-14.551c-1.245-2.984-2.892-6.777-4.943-11.379
	c-2.052-4.6-4.261-9.576-6.623-14.924c-2.364-5.346-4.882-10.85-7.555-16.51c-2.676-5.658-5.194-11.006-7.555-16.043
	c-2.364-5.037-4.571-9.543-6.623-13.524c-2.052-3.979-3.702-7.025-4.943-9.141c-1.37,14.676-2.489,30.563-3.358,47.662
	c-0.872,17.101-1.618,34.356-2.239,51.767h-17.722c0.496-11.192,1.055-22.479,1.679-33.857c0.621-11.38,1.335-22.572,2.146-33.579
	c0.808-11.006,1.679-21.732,2.612-32.179c0.933-10.447,1.958-20.333,3.078-29.661h15.856c3.358,5.474,6.963,11.939,10.82,19.401
	c3.854,7.462,7.709,15.268,11.566,23.412c3.853,8.146,7.584,16.293,11.193,24.438c3.605,8.146,6.902,15.577,9.887,22.292
	c2.985-6.715,6.278-14.146,9.887-22.292c3.606-8.144,7.337-16.291,11.193-24.438c3.854-8.144,7.709-15.95,11.566-23.412
	c3.854-7.462,7.462-13.927,10.82-19.401h15.856c4.227,41.664,7.398,84.756,9.514,129.276H309.517z"/>
<path fill="#999999" d="M709.419,298.977H549.7c-5.833,0-10.561,4.636-10.561,10.353v156.577c0,5.718,4.728,10.353,10.561,10.353
	h159.719c5.833,0,10.561-4.635,10.561-10.353V309.329C719.979,303.612,715.252,298.977,709.419,298.977z M679.275,340.339h-40.666
	v113.606h-18.096V340.339h-40.668v-15.67h99.43V340.339z"/>
<path fill="#999999" d="M899.377,298.854H739.658c-5.833,0-10.561,4.636-10.561,10.353v156.577c0,5.718,4.728,10.353,10.561,10.353
	h159.719c5.833,0,10.561-4.635,10.561-10.353V309.206C909.938,303.489,905.21,298.854,899.377,298.854z M862.02,449.743
	c-2.238,0.933-5.037,1.837-8.395,2.705s-7.275,1.614-11.752,2.238c-4.477,0.621-9.328,0.933-14.551,0.933
	c-9.08,0-17.348-1.492-24.811-4.477c-7.461-2.985-13.869-7.337-19.215-13.059c-5.348-5.719-9.484-12.778-12.404-21.173
	c-2.924-8.395-4.385-18.001-4.385-28.821c0-10.82,1.648-20.427,4.943-28.821s7.742-15.451,13.34-21.173
	c5.596-5.719,12.125-10.074,19.586-13.058c7.463-2.985,15.42-4.477,23.879-4.477c5.346,0,10.166,0.373,14.457,1.119
	s8.021,1.618,11.193,2.611c3.17,0.997,5.75,1.991,7.74,2.985c1.988,0.997,3.357,1.743,4.104,2.239l-5.223,14.923
	c-1.119-0.746-2.736-1.553-4.85-2.425c-2.117-0.869-4.51-1.74-7.182-2.612c-2.676-0.869-5.598-1.585-8.768-2.145
	c-3.172-0.56-6.375-0.84-9.607-0.84c-6.842,0-12.998,1.184-18.469,3.544c-5.473,2.364-10.137,5.783-13.99,10.26
	c-3.857,4.477-6.809,9.919-8.861,16.323c-2.053,6.407-3.078,13.589-3.078,21.546c0,7.713,0.9,14.737,2.705,21.08
	c1.801,6.342,4.506,11.784,8.115,16.322c3.605,4.541,8.115,8.054,13.523,10.54c5.41,2.489,11.721,3.731,18.936,3.731
	c8.33,0,15.232-0.869,20.707-2.612c5.471-1.74,9.574-3.294,12.311-4.663l4.664,14.923
	C865.812,448.035,864.258,448.811,862.02,449.743z"/>
<g>
	<path fill="#FEB500" d="M444.715,281.721c-59.061,0-106.943,47.884-106.943,106.945c0,59.06,47.883,106.943,106.943,106.943
		c59.073,0,106.944-47.884,106.944-106.943C551.659,329.605,503.788,281.721,444.715,281.721z M444.706,487.281
		c-54.371,0-98.605-44.244-98.605-98.627c0-54.371,44.234-98.604,98.605-98.604c54.381,0,98.624,44.234,98.624,98.604
		C543.33,443.037,499.087,487.281,444.706,487.281z"/>
	<path fill="#FEB500" d="M457.182,378.68c2.638-0.961,4.622-2.37,5.942-4.261c1.336-1.89,2.012-4.1,2.012-6.601
		c0-2.532-0.627-4.774-1.887-6.571c-1.257-1.826-3.083-3.108-5.521-3.909c-2.373-0.768-6.68-1.121-12.845-1.121h-10.568v23.939
		h10.568C450.449,380.091,454.508,379.644,457.182,378.68z"/>
	<path fill="#FEB500" d="M459.002,396.082c-2.671-1.026-6.745-1.535-12.217-1.535h-12.47v21.245
		c0.064,3.044,0.157,4.807,0.331,5.289c0.221,0.671,0.612,1.087,1.148,1.375c0.534,0.259,1.948,0.355,4.292,0.355h7.061
		c4.09,0,7.483-0.355,10.155-1.158c2.705-0.767,4.987-2.398,6.887-4.802c1.89-2.438,2.818-5.387,2.818-8.783
		c0-2.949-0.646-5.383-1.998-7.402C463.672,398.646,461.676,397.11,459.002,396.082z"/>
	<path fill="#FEB500" d="M444.706,308.05c-44.446,0-80.605,36.159-80.605,80.604c0,44.458,36.16,80.627,80.605,80.627
		c44.456,0,80.624-36.169,80.624-80.627C525.33,344.209,489.162,308.05,444.706,308.05z M487.371,425.035
		c-3.069,4.376-7.394,7.738-13.069,10.066c-2.06,0.83-4.448,1.506-7.201,2.048v17.515h-16.339v-16.168c-0.409,0-0.816,0-1.208,0
		h-9.281v16.168h-16.336v-16.168h-24.938V424.91h3.839c2.515,0,4.212-0.243,5.125-0.676c0.913-0.43,1.541-1.04,1.902-1.872
		c0.362-0.851,0.551-2.663,0.551-5.527v-54.801c0-2.933-0.189-4.809-0.551-5.576c-0.361-0.816-0.99-1.49-1.902-1.922
		c-0.88-0.434-2.609-0.708-5.125-0.708h-3.839v-13.586h24.938v-16.135h16.336v16.135h10.49v-16.135h16.339v17.355
		c2.406,0.43,4.606,1.007,6.463,1.806c4.778,2.021,8.491,4.843,11.068,8.558c2.564,3.781,3.838,7.884,3.838,12.338
		c0,3.236-0.674,6.312-2.044,9.229c-1.352,2.917-3.318,5.481-5.882,7.723c-2.546,2.243-5.912,4.073-10.158,5.513
		c4.529,1.184,7.99,2.468,10.38,3.91c3.458,1.954,6.21,4.708,8.237,8.268c2.029,3.523,3.019,7.499,3.019,11.854
		C492.023,415.888,490.499,420.665,487.371,425.035z"/>
	<path fill="#FFFFFF" d="M444.706,290.05c-54.371,0-98.605,44.234-98.605,98.604c0,54.383,44.234,98.627,98.605,98.627
		c54.381,0,98.624-44.244,98.624-98.627C543.33,334.284,499.087,290.05,444.706,290.05z M444.706,469.281
		c-44.446,0-80.605-36.169-80.605-80.627c0-44.445,36.16-80.604,80.605-80.604c44.456,0,80.624,36.159,80.624,80.604
		C525.33,433.112,489.162,469.281,444.706,469.281z"/>
	<path fill="#FFFFFF" d="M480.767,390.54c-2.39-1.442-5.852-2.727-10.38-3.91c4.246-1.44,7.612-3.271,10.158-5.513
		c2.564-2.242,4.53-4.807,5.882-7.723c1.37-2.917,2.044-5.993,2.044-9.229c0-4.454-1.273-8.557-3.838-12.338
		c-2.577-3.715-6.29-6.536-11.068-8.558c-1.856-0.799-4.057-1.375-6.463-1.806v-17.355h-16.339v16.135h-10.49v-16.135h-16.336
		v16.135h-24.938v13.586h3.839c2.515,0,4.245,0.274,5.125,0.708c0.913,0.432,1.541,1.105,1.902,1.922
		c0.362,0.768,0.551,2.644,0.551,5.576v54.801c0,2.864-0.189,4.677-0.551,5.527c-0.361,0.832-0.99,1.442-1.902,1.872
		c-0.912,0.433-2.609,0.676-5.125,0.676h-3.839v13.586h24.938v16.168h16.336v-16.168h9.281c0.393,0,0.8,0,1.208,0v16.168h16.339
		v-17.515c2.752-0.542,5.141-1.218,7.201-2.048c5.675-2.328,10-5.69,13.069-10.066c3.128-4.37,4.652-9.147,4.652-14.373
		c0-4.355-0.99-8.331-3.019-11.854C486.978,395.248,484.225,392.494,480.767,390.54z M434.316,356.218h10.568
		c6.165,0,10.472,0.353,12.845,1.121c2.438,0.8,4.264,2.083,5.521,3.909c1.259,1.796,1.887,4.039,1.887,6.571
		c0,2.501-0.676,4.711-2.012,6.601c-1.32,1.891-3.304,3.3-5.942,4.261c-2.674,0.963-6.733,1.411-12.298,1.477h-10.568V356.218z
		 M464.19,416.852c-1.9,2.403-4.182,4.035-6.887,4.802c-2.672,0.803-6.065,1.158-10.155,1.158h-7.061
		c-2.344,0-3.758-0.097-4.292-0.355c-0.536-0.288-0.927-0.704-1.148-1.375c-0.174-0.482-0.267-2.245-0.331-5.289v-21.245h12.47
		c5.472,0,9.545,0.509,12.217,1.535c2.673,1.028,4.669,2.564,6.009,4.584c1.351,2.02,1.998,4.453,1.998,7.402
		C467.009,411.465,466.081,414.413,464.19,416.852z"/>
</g>
</svg>
