<?xml version="1.0" encoding="utf-8"?>
<!-- Generator: Adobe Illustrator 16.0.0, SVG Export Plug-In . SVG Version: 6.00 Build 0)  -->
<!DOCTYPE svg PUBLIC "-//W3C//DTD SVG 1.1//EN" "http://www.w3.org/Graphics/SVG/1.1/DTD/svg11.dtd">
<svg version="1.1" id="Layer_1" xmlns="http://www.w3.org/2000/svg" xmlns:xlink="http://www.w3.org/1999/xlink" x="0px" y="0px"
	 width="766px" height="220.129px" viewBox="0 0 766 220.129" enable-background="new 0 0 766 220.129" xml:space="preserve">
<g>
	<g>
		<path fill="#666666" d="M687.491,137.732l-7.994-8.209l-8.365,7.843c-5.974,5.603-11.626,9.663-16.791,12.069
			c-4.754,2.213-10.721,3.331-17.741,3.331c-10.976,0-20.246-3.928-28.323-12.011c-8.083-8.078-12.015-17.945-12.015-30.168
			c0-12.092,3.893-21.681,11.908-29.309c8.184-7.782,18.119-11.565,30.37-11.565c7.009,0,13.056,1.063,17.978,3.162
			c5.068,2.165,10.75,6.252,16.893,12.147l8.636,8.285l8.077-8.831l16.185-17.696l7.182-7.858l-7.159-7.881
			c-17.917-19.728-40.542-29.729-67.249-29.729c-26.434,0-48.715,8.669-66.221,25.772c-1.429,1.395-2.778,2.832-4.095,4.285V36.664
			V24.982h-11.684H440.093h-11.685v11.684v23.312v11.68h11.685h34.077v115.89v11.682h11.681h25.474h11.681v-11.682V71.657h32.024
			c-5.767,11.954-8.686,25.291-8.686,39.906c0,25.608,8.775,47.16,26.084,64.051c17.219,16.812,39.066,25.342,64.931,25.342
			c26.146,0,48.637-10.232,66.845-30.408l7.341-8.132l-7.645-7.848L687.491,137.732z"/>
		<polygon fill="#666666" points="195.002,24.982 187.653,24.982 184.471,31.604 149.455,104.457 114.438,31.604 111.254,24.982 
			103.908,24.982 64.194,24.982 52.511,24.982 52.511,36.666 52.511,187.547 52.511,199.229 64.194,199.229 89.659,199.229 
			101.342,199.229 101.342,187.547 101.342,119.084 131.671,179.614 134.902,186.062 142.114,186.062 156.362,186.062 
			163.562,186.062 166.797,179.63 197.348,118.904 197.348,187.547 197.348,199.229 209.031,199.229 234.501,199.229 
			246.182,199.229 246.182,187.547 246.182,36.666 246.182,24.982 234.501,24.982 		"/>
	</g>
	<path fill="#FFFFFF" d="M600.013,149.018c10.294,10.289,22.484,15.434,36.587,15.434c8.781,0,16.336-1.475,22.669-4.427
		c6.328-2.947,12.95-7.661,19.857-14.139l16.403,16.834c-15.971,17.701-35.366,26.552-58.171,26.552
		c-22.81,0-41.738-7.337-56.774-22.017c-15.036-14.679-22.557-33.241-22.557-55.691c0-22.448,7.661-41.154,22.99-56.12
		c15.322-14.968,34.679-22.45,58.063-22.45c23.383,0,42.919,8.635,58.603,25.901l-16.184,17.7
		c-7.195-6.909-13.995-11.727-20.402-14.46c-6.401-2.734-13.923-4.104-22.558-4.104c-15.256,0-28.059,4.933-38.42,14.785
		c-10.361,9.858-15.542,22.45-15.542,37.773C584.583,125.92,589.725,138.729,600.013,149.018z"/>
	<polygon fill="#FFFFFF" points="234.501,187.547 209.031,187.547 209.031,69.689 156.362,174.383 142.114,174.383 89.659,69.689 
		89.659,187.547 64.194,187.547 64.194,36.666 103.908,36.666 149.455,131.424 195.002,36.666 234.501,36.666 234.501,187.547 	"/>
	<polygon fill="#FFFFFF" points="234.501,36.666 234.501,187.547 209.031,187.547 209.031,69.689 156.362,174.383 142.114,174.383 
		89.659,69.689 89.659,187.547 64.194,187.547 64.194,36.666 103.908,36.666 149.455,131.424 195.002,36.666 	"/>
	<polygon fill="#FFFFFF" points="557.087,59.978 511.324,59.978 511.324,187.547 485.851,187.547 485.851,59.978 440.093,59.978 
		440.093,36.666 557.082,36.666 557.087,59.978 	"/>
	<g>
		<path fill="#FCB315" d="M433.199,58.396c-17.796-30.494-50.854-50.989-88.72-50.989c-45.925,0-84.803,30.162-97.921,71.752
			c-3.07,9.754-4.736,20.138-4.736,30.904c0,10.77,1.663,21.149,4.736,30.901c13.118,41.589,51.996,71.757,97.921,71.757
			c37.866,0,70.928-20.5,88.72-50.987c8.862-15.183,13.942-32.827,13.942-51.671C447.142,91.226,442.062,73.573,433.199,58.396z"/>
		<g>
			<path fill="#FFFFFF" d="M344.473,21.06c-49.074,0-88.995,39.922-88.995,88.993c0,49.082,39.921,89.014,88.995,89.014
				c49.083,0,89.011-39.932,89.011-89.014C433.484,60.981,393.557,21.06,344.473,21.06z M344.473,182.824
				c-40.115,0-72.75-32.639-72.75-72.771c0-40.113,32.634-72.748,72.75-72.748c40.125,0,72.767,32.635,72.767,72.748
				C417.24,150.186,384.598,182.824,344.473,182.824z"/>
			<path fill="#FFFFFF" d="M376.303,111.104c-2.16-1.298-5.288-2.46-9.371-3.526c3.828-1.3,6.872-2.953,9.169-4.978
				c2.312-2.023,4.089-4.338,5.312-6.97c1.229-2.633,1.843-5.406,1.843-8.328c0-4.025-1.15-7.726-3.462-11.135
				c-2.329-3.353-5.681-5.901-9.996-7.727c-1.673-0.72-3.658-1.243-5.83-1.632V51.146h-14.747v14.563h-9.47V51.146h-14.738v14.563
				h-22.511v12.263h3.465c2.271,0,3.832,0.248,4.626,0.636c0.824,0.395,1.389,0.999,1.719,1.738
				c0.323,0.692,0.495,2.386,0.495,5.029v49.463c0,2.586-0.172,4.222-0.495,4.988c-0.33,0.752-0.895,1.3-1.719,1.688
				c-0.825,0.392-2.355,0.61-4.626,0.61h-3.465v12.264h22.511v14.594h14.738v-14.594h8.381c0.352,0,0.72,0,1.086,0v14.594h14.749
				v-15.807c2.483-0.491,4.644-1.104,6.497-1.856c5.127-2.095,9.028-5.131,11.799-9.077c2.824-3.949,4.189-8.252,4.189-12.973
				c0-3.932-0.889-7.525-2.716-10.701C381.907,115.352,379.416,112.865,376.303,111.104z M334.373,80.127h9.541
				c5.565,0,9.45,0.32,11.593,1.012c2.202,0.721,3.854,1.88,4.981,3.527c1.139,1.62,1.702,3.646,1.702,5.932
				c0,2.257-0.608,4.25-1.808,5.96c-1.196,1.704-2.987,2.976-5.367,3.842c-2.41,0.872-6.075,1.272-11.101,1.333h-9.535V80.127
				H334.373L334.373,80.127z M361.341,134.854c-1.716,2.162-3.774,3.643-6.219,4.333c-2.408,0.729-5.471,1.044-9.167,1.044h-6.371
				c-2.118,0-3.388-0.086-3.872-0.32c-0.487-0.258-0.836-0.638-1.038-1.242c-0.155-0.433-0.24-2.025-0.302-4.771v-19.177h11.262
				c4.934,0,8.613,0.462,11.02,1.385c2.416,0.928,4.219,2.318,5.426,4.137c1.221,1.824,1.808,4.021,1.808,6.679
				C363.888,129.99,363.047,132.653,361.341,134.854z"/>
		</g>
	</g>
</g>
</svg>
