<?xml version="1.0" encoding="utf-8"?>
<!-- Generator: Adobe Illustrator 16.0.0, SVG Export Plug-In . SVG Version: 6.00 Build 0)  -->
<!DOCTYPE svg PUBLIC "-//W3C//DTD SVG 1.1 Tiny//EN" "http://www.w3.org/Graphics/SVG/1.1/DTD/svg11-tiny.dtd">
<svg version="1.1" baseProfile="tiny" id="Layer_1" xmlns="http://www.w3.org/2000/svg" xmlns:xlink="http://www.w3.org/1999/xlink"
	 x="0px" y="0px" width="766px" height="220.13px" viewBox="0 0 766 220.13" xml:space="preserve">
<path fill="#989898" d="M192.805,30.729c0-5.718-4.728-10.354-10.561-10.354H22.525c-5.833,0-10.561,4.636-10.561,10.354v156.577
	c0,5.718,4.728,10.353,10.561,10.353h159.72c5.833,0,10.561-4.635,10.561-10.353L192.805,30.729z M176.681,176.392h-21.804V75.5
	l-45.086,89.619H97.595L52.692,75.5v100.892H30.889V47.229h34l38.989,81.119l38.989-81.119h33.814L176.681,176.392L176.681,176.392z
	"/>
<path fill="#989898" d="M557.518,20.377H397.799c-5.834,0-10.562,4.636-10.562,10.354v156.577c0,5.718,4.728,10.353,10.562,10.353
	h159.719c5.832,0,10.561-4.635,10.561-10.353V30.73C568.077,25.013,563.35,20.377,557.518,20.377z M527.477,67.186h-39.174v109.206
	h-21.806V67.186h-39.174V47.229h100.152L527.477,67.186L527.477,67.186z"/>
<path fill="#989898" d="M749.475,20.254H589.756c-5.832,0-10.562,4.637-10.562,10.354v156.577c0,5.718,4.729,10.353,10.562,10.353
	h159.719c5.834,0,10.561-4.635,10.561-10.353V30.607C760.034,24.891,755.309,20.254,749.475,20.254z M645.938,143.407
	c8.807,8.81,19.246,13.212,31.32,13.212c7.514,0,13.979-1.262,19.401-3.788c5.42-2.522,11.088-6.56,17-12.104l14.043,14.413
	c-13.674,15.151-30.274,22.729-49.799,22.729s-35.727-6.283-48.598-18.848c-12.873-12.565-19.31-28.457-19.31-47.674
	s6.56-35.23,19.681-48.043c13.119-12.812,29.686-19.217,49.705-19.217c20.018,0,36.739,7.392,50.168,22.174l-13.857,15.151
	c-6.162-5.913-11.981-10.039-17.463-12.38c-5.482-2.339-11.918-3.511-19.31-3.511c-13.059,0-24.021,4.221-32.893,12.658
	c-8.869,8.438-13.303,19.217-13.303,32.336C632.727,123.637,637.129,134.603,645.938,143.407z"/>
<polygon fill="#FFFFFF" points="103.877,128.349 64.889,47.229 30.889,47.229 30.889,176.392 52.692,176.392 52.692,75.5 
	97.595,165.119 109.791,165.119 154.877,75.5 154.877,176.392 176.681,176.392 176.681,47.229 142.866,47.229 "/>
<polygon fill="#FFFFFF" points="427.323,67.186 466.497,67.186 466.497,176.392 488.303,176.392 488.303,67.186 527.477,67.186 
	527.477,47.229 427.323,47.229 "/>
<path fill="#FFFFFF" d="M646.028,78.18c8.871-8.438,19.834-12.658,32.894-12.658c7.391,0,13.825,1.172,19.309,3.511
	c5.48,2.341,11.301,6.467,17.463,12.38l13.857-15.151c-13.428-14.782-30.15-22.175-50.168-22.175
	c-20.021,0-36.586,6.407-49.705,19.218c-13.121,12.812-19.68,28.825-19.68,48.043c0,19.217,6.436,35.107,19.309,47.674
	c12.871,12.563,29.072,18.848,48.598,18.848c19.523,0,36.125-7.576,49.799-22.729l-14.043-14.413c-5.911,5.544-11.58,9.58-17,12.104
	c-5.422,2.526-11.889,3.788-19.401,3.788c-12.074,0-22.515-4.402-31.32-13.212c-8.809-8.806-13.211-19.771-13.211-32.892
	C632.727,97.397,637.159,86.619,646.028,78.18z"/>
<g>
	<path fill="#FDB515" d="M386.479,56.238c-18.541-31.768-52.982-53.117-92.425-53.117c-47.842,0-88.345,31.422-102.008,74.751
		c-3.204,10.161-4.936,20.976-4.936,32.193s1.73,22.032,4.936,32.192c13.663,43.328,54.166,74.751,102.008,74.751
		c39.442,0,73.885-21.351,92.425-53.116c9.228-15.812,14.521-34.2,14.521-53.827S395.707,72.051,386.479,56.238z"/>
	<g>
		<path fill="#FFFFFF" d="M294.046,11.449c-54.371,0-98.605,44.234-98.605,98.604c0,54.383,44.234,98.627,98.605,98.627
			c54.383,0,98.625-44.244,98.625-98.627C392.671,55.684,348.429,11.449,294.046,11.449z M294.046,190.682
			c-44.446,0-80.605-36.169-80.605-80.627c0-44.445,36.16-80.604,80.605-80.604c44.457,0,80.625,36.159,80.625,80.604
			C374.671,154.513,338.503,190.682,294.046,190.682z"/>
		<path fill="#FFFFFF" d="M329.312,111.219c-2.391-1.443-5.852-2.727-10.381-3.91c4.246-1.439,7.613-3.271,10.158-5.513
			c2.564-2.242,4.531-4.808,5.883-7.724c1.369-2.916,2.043-5.992,2.043-9.229c0-4.454-1.271-8.557-3.838-12.338
			c-2.576-3.715-6.289-6.536-11.068-8.559c-1.855-0.799-4.057-1.375-6.463-1.806V44.787h-16.338v16.135h-10.49V44.787h-16.336
			v16.135h-24.938v13.586h3.839c2.516,0,4.245,0.273,5.125,0.708c0.913,0.432,1.541,1.104,1.902,1.922
			c0.363,0.768,0.551,2.644,0.551,5.576v54.8c0,2.865-0.188,4.678-0.551,5.527c-0.361,0.832-0.99,1.441-1.902,1.873
			s-2.608,0.676-5.125,0.676h-3.839v13.586h24.938v16.168h16.336v-16.168h9.281c0.393,0,0.799,0,1.207,0v16.168h16.34v-17.516
			c2.752-0.541,5.143-1.219,7.201-2.049c5.676-2.326,10-5.689,13.07-10.064c3.127-4.371,4.65-9.148,4.65-14.373
			c0-4.355-0.988-8.332-3.018-11.855C335.522,115.926,332.769,113.172,329.312,111.219z M282.86,76.895h10.568
			c6.164,0,10.471,0.354,12.844,1.121c2.439,0.8,4.266,2.083,5.521,3.909c1.26,1.796,1.887,4.039,1.887,6.571
			c0,2.501-0.676,4.711-2.012,6.601c-1.32,1.891-3.303,3.3-5.941,4.261c-2.674,0.964-6.732,1.411-12.299,1.478h-10.566v-23.94
			H282.86z M312.735,137.529c-1.9,2.402-4.182,4.035-6.887,4.803c-2.672,0.803-6.064,1.156-10.156,1.156h-7.061
			c-2.344,0-3.758-0.096-4.291-0.354c-0.537-0.289-0.928-0.705-1.148-1.375c-0.174-0.482-0.268-2.246-0.33-5.289v-21.246h12.469
			c5.473,0,9.545,0.51,12.217,1.535c2.674,1.029,4.67,2.564,6.01,4.584c1.352,2.02,1.998,4.453,1.998,7.402
			C315.554,132.143,314.626,135.092,312.735,137.529z"/>
	</g>
</g>
</svg>
