<?xml version="1.0" encoding="utf-8"?>
<!-- Generator: Adobe Illustrator 16.0.0, SVG Export Plug-In . SVG Version: 6.00 Build 0)  -->
<!DOCTYPE svg PUBLIC "-//W3C//DTD SVG 1.1//EN" "http://www.w3.org/Graphics/SVG/1.1/DTD/svg11.dtd">
<svg version="1.1" id="Layer_1" xmlns="http://www.w3.org/2000/svg" xmlns:xlink="http://www.w3.org/1999/xlink" x="0px" y="0px"
	 width="766px" height="220.129px" viewBox="0 0 766 220.129" enable-background="new 0 0 766 220.129" xml:space="preserve">
<g>
	<g>
		<path fill="#FFFFFF" d="M597.916,149.423c10.398,10.396,22.719,15.594,36.968,15.594c8.87,0,16.504-1.489,22.904-4.473
			c6.396-2.979,13.087-7.742,20.063-14.287l16.578,17.013c-16.14,17.884-35.738,26.828-58.781,26.828
			c-23.048,0-42.175-7.415-57.368-22.247c-15.192-14.833-22.792-33.59-22.792-56.274c0-22.682,7.744-41.583,23.232-56.706
			c15.483-15.125,35.039-22.685,58.67-22.685c23.629,0,43.366,8.725,59.216,26.171l-16.353,17.885
			c-7.273-6.98-14.142-11.848-20.616-14.611c-6.471-2.762-14.067-4.146-22.792-4.146c-15.415,0-28.352,4.985-38.824,14.94
			c-10.471,9.961-15.705,22.685-15.705,38.167C582.322,126.085,587.52,139.027,597.916,149.423z"/>
		<path fill="#666666" d="M637.391,32.186c23.629,0,43.366,8.725,59.216,26.171l-16.353,17.885
			c-7.273-6.98-14.142-11.848-20.616-14.611c-6.471-2.762-14.067-4.146-22.792-4.146c-15.415,0-28.352,4.985-38.824,14.94
			c-10.471,9.961-15.705,22.685-15.705,38.167c0.006,15.492,5.203,28.435,15.6,38.83c10.398,10.396,22.719,15.594,36.968,15.594
			c8.87,0,16.504-1.489,22.904-4.473c6.396-2.979,13.087-7.742,20.063-14.287l16.578,17.013
			c-16.14,17.884-35.738,26.828-58.781,26.828c-23.048,0-42.175-7.415-57.368-22.247c-15.192-14.833-22.792-33.59-22.792-56.274
			c0-22.682,7.744-41.583,23.232-56.706C594.204,39.746,613.76,32.186,637.391,32.186 M637.391,20.383
			c-26.709,0-49.223,8.759-66.914,26.041c-17.779,17.356-26.791,39.279-26.791,65.152c0,25.876,8.867,47.654,26.354,64.721
			c17.398,16.989,39.475,25.606,65.609,25.606c26.419,0,49.144-10.34,67.543-30.725l7.417-8.22l-7.725-7.926l-16.577-17.015
			l-8.079-8.293l-8.449,7.923c-6.037,5.661-11.749,9.766-16.967,12.195c-4.806,2.236-10.837,3.367-17.928,3.367
			c-11.092,0-20.456-3.97-28.618-12.135c-8.168-8.165-12.141-18.135-12.144-30.486c0-12.217,3.933-21.906,12.035-29.613
			c8.271-7.864,18.309-11.687,30.688-11.687c7.079,0,13.189,1.074,18.162,3.194c5.122,2.188,10.862,6.318,17.072,12.274l8.725,8.373
			l8.159-8.924l16.355-17.881l7.259-7.941l-7.235-7.963C687.239,30.489,664.375,20.383,637.391,20.383L637.391,20.383z"/>
	</g>
	<g>
		<polygon fill="#FFFFFF" points="237.314,188.355 211.578,188.355 211.578,69.265 158.359,175.052 143.961,175.052 90.958,69.265 
			90.958,188.355 65.228,188.355 65.228,35.897 105.356,35.897 151.379,131.644 197.402,35.897 237.314,35.897 237.314,188.355 		
			"/>
		<path fill="#666666" d="M237.314,35.897v152.458h-25.737V69.265l-53.219,105.787h-14.397L90.958,69.265v119.09H65.228V35.897
			h40.128l46.023,95.746l46.023-95.746H237.314 M249.117,24.092h-11.803h-39.913h-7.426l-3.214,6.69l-35.383,73.616l-35.382-73.616
			l-3.217-6.69h-7.423H65.228H53.422v11.806v152.458v11.803h11.806h25.731h11.806v-11.803v-69.18l30.645,61.162l3.266,6.514h7.287
			h14.397h7.275l3.269-6.496l30.869-61.361v69.361v11.803h11.806h25.737h11.803v-11.803V35.897V24.092L249.117,24.092z"/>
	</g>
	<g>
		<polygon fill="#FFFFFF" points="554.539,59.452 508.3,59.452 508.3,188.355 482.561,188.355 482.561,59.452 436.324,59.452 
			436.324,35.897 554.536,35.897 554.539,59.452 		"/>
		<path fill="#666666" d="M554.536,35.897l0.003,23.554H508.3v128.904h-25.739V59.452h-46.236V35.897H554.536 M566.339,24.092
			h-11.803H436.324h-11.806v11.806v23.554v11.803h11.806h34.434v117.101v11.803h11.803H508.3h11.803v-11.803V71.254h34.437h11.809
			l-0.006-11.803V35.895L566.339,24.092L566.339,24.092z"/>
	</g>
	<g>
		<path fill="#FCB315" d="M432.925,59.17c-17.529-30.04-50.095-50.226-87.394-50.226c-45.238,0-83.531,29.713-96.454,70.68
			c-3.027,9.609-4.667,19.837-4.667,30.44c0,10.609,1.637,20.832,4.667,30.44c12.922,40.964,51.215,70.68,96.454,70.68
			c37.298,0,69.867-20.192,87.394-50.224c8.728-14.954,13.732-32.336,13.732-50.896C446.657,91.506,441.652,74.119,432.925,59.17z"
			/>
		<g>
			<path fill="#FFFFFF" d="M345.526,22.393c-48.339,0-87.664,39.324-87.664,87.661c0,48.347,39.324,87.68,87.664,87.68
				c48.347,0,87.677-39.333,87.677-87.68C433.203,61.717,393.873,22.393,345.526,22.393z M345.526,181.736
				c-39.515,0-71.664-32.151-71.664-71.683c0-39.509,32.148-71.658,71.664-71.658c39.523,0,71.677,32.148,71.677,71.658
				C417.203,149.585,385.049,181.736,345.526,181.736z"/>
			<path fill="#FFFFFF" d="M376.878,111.091c-2.126-1.282-5.207-2.425-9.231-3.476c3.771-1.279,6.77-2.91,9.032-4.902
				c2.279-1.992,4.03-4.271,5.235-6.866c1.21-2.592,1.813-5.326,1.813-8.205c0-3.961-1.131-7.608-3.41-10.967
				c-2.293-3.305-5.596-5.812-9.845-7.61c-1.648-0.708-3.606-1.225-5.744-1.606V52.031h-14.525v14.344h-9.327V52.031h-14.523v14.344
				h-22.17v12.078h3.41c2.24,0,3.777,0.242,4.559,0.628c0.81,0.387,1.367,0.983,1.691,1.711c0.321,0.682,0.489,2.351,0.489,4.957
				v48.717c0,2.549-0.167,4.16-0.489,4.916c-0.324,0.739-0.881,1.279-1.691,1.663s-2.319,0.6-4.559,0.6h-3.41v12.081h22.17v14.375
				h14.523v-14.375h8.253c0.347,0,0.71,0,1.071,0v14.375h14.528v-15.571c2.447-0.483,4.573-1.089,6.4-1.827
				c5.05-2.063,8.893-5.057,11.621-8.944c2.782-3.888,4.129-8.128,4.129-12.777c0-3.873-0.875-7.409-2.677-10.541
				C382.397,115.273,379.948,112.821,376.878,111.091z M335.579,80.576h9.396c5.482,0,9.31,0.312,11.419,0.995
				c2.171,0.71,3.797,1.853,4.908,3.479c1.123,1.594,1.677,3.586,1.677,5.84c0,2.223-0.6,4.186-1.782,5.869
				c-1.176,1.683-2.941,2.933-5.286,3.789c-2.376,0.858-5.985,1.253-10.936,1.31h-9.393V80.576H335.579L335.579,80.576z
				 M362.14,134.482c-1.688,2.132-3.717,3.59-6.125,4.269c-2.373,0.717-5.389,1.029-9.029,1.029h-6.275
				c-2.086,0-3.342-0.085-3.814-0.315c-0.48-0.256-0.824-0.628-1.023-1.225c-0.154-0.427-0.239-1.995-0.296-4.698v-18.891h11.089
				c4.863,0,8.486,0.455,10.856,1.364c2.382,0.915,4.155,2.282,5.346,4.075c1.202,1.796,1.779,3.959,1.779,6.579
				C364.649,129.694,363.822,132.314,362.14,134.482z"/>
		</g>
	</g>
</g>
</svg>
